<?xml version="1.0" encoding="UTF-8"?>
<svg id="Layer_1" data-name="Layer 1" xmlns="http://www.w3.org/2000/svg" viewBox="0 0 288 288">
  <defs>
    <style>
      .cls-1, .cls-2 {
        fill: none;
        stroke: #2d1e0d;
        stroke-width: 6px;
      }

      .cls-1, .cls-2, .cls-3 {
        stroke-miterlimit: 10;
      }

      .cls-4 {
        fill: #e29c7d;
      }

      .cls-4, .cls-3 {
        opacity: .75;
      }

      .cls-5 {
        fill: #f9f2e8;
      }

      .cls-6 {
        fill: #ea9163;
      }

      .cls-2 {
        stroke-linecap: round;
      }

      .cls-7 {
        fill: #2d1e0d;
      }

      .cls-3 {
        fill: #8dcd40;
        stroke: #8dcd40;
      }
    </style>
  </defs>
  <g id="Logo_4" data-name="Logo 4">
    <g>
      <path class="cls-5" d="M62.7,190.31l.05,5.07c.01,1.1,1.28,1.91,2.26,1.3,2.37-1.5,4.39-3.4,6.09-5.62.31-.41.25-1.09,0-1.51-.26-.45-.77-.75-1.3-.74-.18,0-.36,0-.54-.01-.09,0-.18-.02-.27-.02-.21,0,.37.07.03,0s-.67-.13-.99-.24c-.12-.04-.34-.18-.46-.17.18.08.21.09.11.05-.03-.01-.07-.03-.1-.05-.08-.04-.16-.08-.24-.12-.32-.17-.62-.36-.91-.57-.51-.38-1.4-.22-1.82.23-.48.53-.53,1.19-.23,1.82.07.15.06.14-.02-.05.03.07.06.14.08.21.04.11.08.21.11.32.07.23.13.47.18.71.01.06.02.11.03.17.03.17.02.15,0-.06.04.08.02.25.03.34.01.26.01.53,0,.79-.05.78.72,1.53,1.5,1.5.85-.04,1.45-.66,1.5-1.5.08-1.37-.23-2.7-.8-3.94l-2.05,2.05c1.39,1.03,3.16,1.56,4.88,1.54l-1.3-2.26c-.15.2.04-.04.03-.04,0,0-.13.16-.14.17-.1.13-.21.26-.31.38-.19.22-.38.44-.58.66-.42.46-.86.9-1.32,1.32-.22.2-.44.39-.66.58-.11.09-.22.19-.34.28-.07.06-.14.11-.21.17-.2.15.04-.03.04-.03.03.05-1.4.98-1.53,1.06l2.26,1.3-.05-5.07c0-.78-.68-1.54-1.5-1.5s-1.51.66-1.5,1.5h0Z"/>
      <path class="cls-5" d="M78.51,220.5c5.71-4.24,11.41-8.47,17.12-12.71,1.28-.95.6-3.24-1.16-2.74-3.63,1.03-6.88,3.03-9.41,5.83l2.51.66c-.05.25.03.19.24-.17.2-.18.41-.33.64-.47.43-.29.87-.56,1.31-.83.78-.47,1.57-.92,2.36-1.36,1.77-.98,3.57-1.9,5.33-2.89,3.4-1.9,6.69-4.1,9.15-7.16,1.19-1.48-.65-3.43-2.12-2.12-1.88,1.68-4.04,2.99-6.4,3.86l1.46,2.51c2.89-2.39,5.87-4.66,8.95-6.8,2.56-1.78,5.24-3.48,6.29-6.58l-1.05,1.05c1.38-.31,2.77.05,3.83,1v-2.12c-4.34,3.38-8.69,6.75-13.03,10.13l2.51,1.46c.62-1.51,1.8-2.6,3.24-3.31l-1.51-2.59c-10.48,7.92-20.77,16.09-30.85,24.51-1.48,1.24.65,3.35,2.12,2.12,9.89-8.26,19.97-16.27,30.24-24.04,1.52-1.15.26-3.46-1.51-2.59-2.18,1.07-3.71,2.87-4.62,5.1-.64,1.57,1.5,2.24,2.51,1.46,4.34-3.38,8.69-6.75,13.03-10.13.62-.48.55-1.63,0-2.12-1.59-1.43-3.65-2.2-5.8-1.94-.56.07-1.2.13-1.61.55-.36.36-.44.9-.67,1.34-.49.94-1.32,1.7-2.14,2.35-1.89,1.49-3.96,2.77-5.89,4.2-2.1,1.55-4.15,3.16-6.16,4.83-1.14.94.08,3.02,1.46,2.51,2.87-1.06,5.44-2.59,7.72-4.64l-2.12-2.12c-2.78,3.45-6.57,5.65-10.42,7.72-1.89,1.02-3.8,2.01-5.64,3.12s-4.18,2.4-3.74,4.95c.19,1.1,1.79,1.45,2.51.66,2.19-2.44,4.93-4.17,8.08-5.06l-1.16-2.74c-5.71,4.24-11.41,8.47-17.12,12.71-1.53,1.14-.04,3.74,1.51,2.59h0Z"/>
      <path class="cls-5" d="M120.84,191.51c1.93,0,1.93-3,0-3s-1.93,3,0,3h0Z"/>
      <path class="cls-5" d="M105.88,238.65c6.44-4.58,12.72-9.38,18.82-14.39,1.39-1.14-.38-3.07-1.82-2.36-6.73,3.33-12.34,8.7-15.99,15.26-.84,1.51,1.1,2.96,2.36,1.82,11.25-10.18,23.21-19.54,35.8-28.02.95-.64.98-1.96,0-2.59-.54-.35-.77-.81-.78-1.45-.02-1.08-1.29-1.95-2.26-1.3-6.9,4.66-13.33,9.98-19.18,15.91-1.22,1.24.32,3.13,1.82,2.36,6.63-3.45,12.5-8.28,17.15-14.13,1.19-1.5-.92-3.63-2.12-2.12-4.51,5.68-10.11,10.31-16.55,13.66l1.82,2.36c5.67-5.75,11.88-10.92,18.57-15.44l-2.26-1.3c.02,1.71.83,3.12,2.27,4.04v-2.59c-12.8,8.61-24.97,18.14-36.41,28.48l2.36,1.82c3.42-6.15,8.61-11.06,14.91-14.18l-1.82-2.36c-5.91,4.85-11.98,9.49-18.22,13.92-1.56,1.11-.06,3.71,1.51,2.59h0Z"/>
      <path class="cls-5" d="M88.43,149.25c8.25,13.01,23.37,18.59,38.05,20.26,4.42.5,9.08.91,13.31-.76,1.76-.7,1.12-3.36-.8-2.89-2.78.67-5.56,1.35-8.33,2.02-1.39.34-1.47,2.61,0,2.89,1,.19,2,.39,2.99.58l.4-2.95c-11.93.97-24.04-2.79-33.21-10.51-1.47-1.24-3.6.88-2.12,2.12,9.76,8.22,22.59,12.42,35.33,11.39,1.57-.13,2.17-2.6.4-2.95-1-.19-2-.39-2.99-.58v2.89c2.78-.67,5.56-1.35,8.33-2.02l-.8-2.89c-4.39,1.74-9.33,1.09-13.89.49-4.84-.63-9.64-1.71-14.22-3.39-7.95-2.92-15.27-7.99-19.85-15.22-1.03-1.63-3.63-.12-2.59,1.51h0Z"/>
      <path class="cls-5" d="M116.9,92.71c-.17,9.08,4.71,17.08,9.73,24.27,1.2,1.72,2.36,3.62,3.93,5.04,1.66,1.5,3.64,2.04,5.72,2.68,2.23.69,4.33,1.76,6.66,2.09,2.16.3,4.39.05,6.46-.65,5.07-1.7,8.86-5.54,12.45-9.33l-1.82.23c-.45-.34-.15-.37-.5.18-.24.38-.58.66-.92.96-.88.79-1.77,1.56-2.67,2.32-1.71,1.43-3.5,2.76-5.45,3.83-3.83,2.11-8.55,3.1-12.64,1.1-3.69-1.8-6.38-5.13-8.68-8.42-2.68-3.84-4.97-7.97-6.78-12.29l-2.74,1.16c2.61,4.47,5.32,9.07,9.29,12.48,3.5,3,8.29,4.83,10.77,8.88l.9-2.2c-2.11.44-4.18.06-6.03-1.01l-.76,2.8c3.02.06,6.05.12,9.07.18l-.4-2.95c-1.06.15-2.13-.43-2.7-1.3-1.05-1.61-3.65-.11-2.59,1.51,1.38,2.11,3.62,3.03,6.09,2.68,1.72-.24,1.23-2.91-.4-2.95-3.02-.06-6.05-.12-9.07-.18-1.5-.03-2.03,2.06-.76,2.8,2.56,1.49,5.45,1.92,8.35,1.32.94-.2,1.38-1.42.9-2.2-2.53-4.13-6.94-6.06-10.62-8.97-4.13-3.27-6.83-7.91-9.44-12.39-.83-1.41-3.41-.46-2.74,1.16,1.71,4.09,3.75,8.02,6.2,11.72,2.21,3.33,4.68,6.62,7.89,9.06s7.14,3.62,11.23,3.08c4.32-.58,8.12-2.74,11.52-5.37,2.23-1.73,9.31-6.41,5.2-9.56-.51-.39-1.4-.2-1.82.23-2.83,2.99-5.73,6.09-9.49,7.9-1.81.87-3.81,1.39-5.82,1.33s-3.97-.91-5.87-1.62-3.99-.93-5.56-2.16c-1.45-1.13-2.46-2.84-3.51-4.33-2.3-3.28-4.54-6.62-6.33-10.21-2.01-4.03-3.32-8.36-3.24-12.89.04-1.93-2.96-1.93-3,0h0Z"/>
      <path class="cls-5" d="M155.75,161.34c3.96,1.47,7.94,2.56,12.17,1.75s8.06-2.45,11.95-3.82c7.62-2.69,15.21-5.79,21.92-10.36,3.33-2.26,6.83-5.08,7.57-9.28.23-1.29-1.49-2.78-2.51-1.46-4.89,6.31-10.94,11.64-17.82,15.68-3.41,2-6.99,3.69-10.72,5s-7.43,2.4-11.25,2.71-7.97-.14-10.62-3.23c-1.26-1.47-3.37.66-2.12,2.12,5.37,6.26,15.12,4.26,21.98,2.2,8.2-2.46,15.85-6.57,22.49-11.96,3.78-3.07,7.2-6.57,10.18-10.41l-2.51-1.46c-.61,3.42-3.48,5.64-6.19,7.48-3.05,2.07-6.28,3.85-9.62,5.41-6.76,3.17-13.97,5.71-21.12,7.85-2.16.65-4.32,1.02-6.57.71s-4.34-1.07-6.43-1.85c-1.81-.67-2.59,2.23-.8,2.89h0Z"/>
      <path class="cls-5" d="M149.89,205.39c-1.75,2.68.17,5.68,2.13,7.61,2.51,2.47,5.29,4.67,8.07,6.83,5.89,4.57,11.9,8.98,17.86,13.46,1.47,1.1,2.93,2.2,4.4,3.3,1.27.96,2.76,2.47,4.51,2.03,1.31-.33,2.22-1.7,1.75-3.03-.53-1.48-2.29-2.7-3.37-3.77-4.86-4.78-9.95-9.33-15.25-13.61-3.05-2.46-6.16-4.84-9.34-7.12-1.6-1.15-3.21-2.28-4.84-3.38-1.35-.92-2.85-2.32-4.6-1.78-.94.29-1.38,1.34-.9,2.2,1.28,2.31,3.68,3.15,5.89,4.3,1.2.63,2.12,1.32,2.72,2.55.74,1.51,1.26,2.97,2.33,4.29,2.11,2.62,5.18,4.49,7.89,6.43,3.01,2.15,6.1,4.2,9.4,5.89,1.71.88,3.21-1.65,1.51-2.59-6.7-3.71-12.61-8.77-17.24-14.88l-2.05,2.05c8.15,5.45,16.32,10.94,23.3,17.87,1.37,1.36,3.49-.76,2.12-2.12-7.16-7.1-15.55-12.75-23.91-18.34-1.2-.8-2.97.85-2.05,2.05,4.95,6.54,11.14,11.98,18.32,15.96l1.51-2.59c-3.16-1.62-6.13-3.57-9.02-5.62-2.61-1.85-5.7-3.67-7.67-6.24-.94-1.23-1.3-2.71-2.04-4.04-.66-1.19-1.65-2.1-2.8-2.81-1.84-1.13-4.51-1.66-5.62-3.68l-.9,2.2c.26-.08,1.36.84,1.54.96.5.34,1,.68,1.5,1.02,1.25.86,2.49,1.72,3.72,2.61,2.36,1.69,4.68,3.43,6.96,5.22,4.53,3.56,8.9,7.3,13.12,11.22,2.11,1.96,4.17,3.97,6.2,6.01.42.42.51.94.87.22.32-.63.07-.52-.45-.88s-1.07-.8-1.6-1.2c-1.33-1-2.66-2-4-3-5.01-3.76-10.03-7.52-15.03-11.29-2.59-1.95-5.16-3.94-7.62-6.06-1.23-1.06-2.51-2.12-3.6-3.32-.8-.88-1.89-2.26-1.12-3.43,1.06-1.62-1.54-3.12-2.59-1.51h0Z"/>
      <path class="cls-5" d="M178.9,190.72c3.69-.37,6.45,3.19,8.96,5.38,3.02,2.64,6.25,5.04,9.52,7.35s6.55,4.48,9.8,6.75c1.63,1.13,3.24,2.29,4.82,3.48.82.61,1.65,1.22,2.42,1.89.25.21.63.49.8.77.11.13.18.27.22.43-.12.15-.07.15.14,0l1.05,1.05c-.99-3.69-4.01-6.13-7.2-7.95-1.74-.99-3.56-1.86-5.21-3.01s-2.94-2.51-4.25-3.92c-2.68-2.91-5.31-5.68-8.57-7.97s-6.9-4.16-10.48-6c-1.71-.88-3.22,1.67-1.51,2.59,3.35,1.8,6,4.48,8.78,7.02,2.94,2.69,6.09,4.85,9.64,6.67s7.24,3.66,10.46,6.25c2.87,2.31,6.1,5.47,9.92,5.92,1.91.22,1.9-2.78,0-3-1.8-.21-3.74-1.84-5.13-2.9s-2.84-2.31-4.3-3.42c-3.15-2.4-6.72-4.01-10.21-5.84s-6.32-4-9.14-6.62c-2.65-2.45-5.29-4.95-8.5-6.67l-1.51,2.59c3.07,1.58,6.15,3.16,9.05,5.04s5.46,4.14,7.81,6.72,4.57,5.03,7.52,6.84c2.71,1.66,5.79,2.85,8.04,5.18.54.56,1.01,1.17,1.37,1.86.34.65.4,1.57.92,2.09,1.04,1.04,2.75.45,3.57-.51,2.48-2.92-1.45-5.61-3.47-7.15-5.49-4.19-11.34-7.88-16.94-11.91-3.22-2.32-6.31-4.78-9.23-7.47-2.53-2.33-5.47-4.89-9.15-4.52-1.9.19-1.92,3.19,0,3h0Z"/>
      <path class="cls-5" d="M224.01,190.7c.31.19.61.39.91.6.14.1.28.2.41.3.19.14-.27-.22.05.04.07.05.13.11.2.16.56.46,1.09.96,1.59,1.49.23.25.46.5.68.76.12.15.24.3.36.45.14.18-.13-.18,0,0,.05.07.1.14.15.21.44.6.84,1.24,1.2,1.89.31.56,1.08.89,1.69.69.67-.22,1.04-.76,1.1-1.45.12-1.33.24-2.65.36-3.98.07-.77.27-1.64-.11-2.36s-1.18-1.11-2.01-1.04c-.5.04-.99.1-1.49.07-.11,0-.26,0-.37-.03.35.12-.05-.01-.15-.03-.26-.05-.52-.11-.77-.19-.12-.04-.23-.08-.35-.12s-.33-.14-.1-.03c-.26-.12-.51-.25-.76-.39-.21-.13-.41-.26-.61-.41.27.2-.02-.02-.08-.07-.12-.11-.24-.22-.36-.33-.56-.55-1.57-.6-2.12,0s-.57,1.5,0,2.12c1.62,1.76,3.83,3.04,6.18,3.52,1.41.28,3.19.45,4.04-.99.64-1.08.29-2.53-.61-3.36-1.14-1.04-2.81-.84-3.9.16-1.02.94-1.64,2.82-.72,4.01,1.08,1.4,3.29.85,3.86-.73s-.8-3.19-2.32-3.47-3.82-.14-4.17,1.79c-.17.9.09,1.77.7,2.45.55.61,1.33.91,2.08,1.17,1.02.36,2.26-.8,1.85-1.85-.43-1.1-1.16-1.83-2.27-2.26-.73-.28-1.68.31-1.85,1.05-.2.86.26,1.54,1.05,1.85-.35-.13-.03,0,.04.04.3.17-.21-.2.04.04.21.2-.1-.24.05.04.04.08.18.39.05.04l1.85-1.85c-.15-.05-.31-.11-.46-.17.31.13-.1-.07-.19-.12-.28-.16.02-.01.02.02l-.09-.08.09.13c-.15-.25.02.09.01.09-.06-.02-.07-.52-.03,0,0-.1.04-.27-.03.11.02-.11.11-.2-.04.09-.05.1-.15.21-.24.27-.05.03-.29.1-.03.04-.06.01-.32.02-.05.02.08,0,.17,0,.25,0,.2,0,.4,0,.6,0,.05,0,.32.05.13,0s.07.04.12.04c.19.01-.15-.11,0-.01.05.03.22.18.09.04-.18-.18.12.19-.03-.02l-.05-.06c.07.12.08.13.02.02,0-.03-.04-.4-.04-.2,0,.13.06-.26.1-.33.07-.13.18-.22.3-.31-.2.13.1-.04.13-.05-.22.08.12-.02.15-.02.15,0,.32.05.45.13.18.11.37.37.43.57.13.46-.04.1.02.07v-.11c0,.06,0,.12-.01.19,0,0,.08-.32.09-.31.02.02-.18.32-.02.06.04-.06.07-.13.11-.19.11-.18-.04,0-.04.05,0-.04.16-.12.15-.15.01.03-.31.18-.05.04.03-.02.16-.11.18-.1.03,0-.37.1-.07.05-.16.03-.26.04-.04.01s-.32-.07-.14-.02c.14.04-.16-.07-.17-.08,0,0,.13.08.14.09-.11-.01-.25-.2-.11-.07.18.17-.08-.08-.07-.11,0,0,.07.12.09.15.13.21-.07-.1-.05-.13.01.04.02.08.03.12.03.12.02.05-.02-.2,0,.02,0,.16,0,.16,0-.02.08-.39.01-.17,0-.02.17-.35.05-.15.08-.14.18-.22.31-.31-.06.04-.25.11.02,0-.12.05-.2-.03.02,0-.18-.03-.39-.02-.58-.03-.23-.02.25.05.02,0-.08-.02-.17-.03-.25-.04-.17-.03-.33-.06-.5-.1-.35-.08-.69-.18-1.03-.3-.08-.03-.16-.06-.24-.09-.04-.02-.42-.18-.11-.04-.17-.08-.35-.16-.52-.24-.36-.18-.71-.38-1.04-.6-.16-.1-.31-.22-.47-.33-.18-.13.17.15,0,0-.08-.07-.16-.13-.24-.2-.32-.27-.62-.57-.91-.88l-2.12,2.12c1.6,1.58,3.83,2.51,6.08,2.5.24,0,.49-.02.73-.04.11-.01.22-.03.33-.04.16-.01.48.05.01-.07-.43-.06-.68-.35-.77-.87,0,.07,0,.14-.02.2-.01.15-.03.31-.04.46-.03.31-.06.61-.08.92-.11,1.25-.23,2.5-.34,3.75l2.8-.76c-1.57-2.85-3.88-5.26-6.63-6.99-.67-.42-1.68-.16-2.05.54-.39.74-.17,1.61.54,2.05h0Z"/>
      <path class="cls-5" d="M114.22,193.62c1.93,0,1.93-3,0-3s-1.93,3,0,3h0Z"/>
    </g>
    <g id="Right_Leaf" data-name="Right Leaf">
      <path class="cls-3" d="M174.21,113.36c-19.87,13.02-30.82,31.45-24.45,41.18s27.64,7.05,47.52-5.97c19.87-13.02,24.45-41.18,24.45-41.18,0,0-27.64-7.05-47.52,5.97Z"/>
      <path class="cls-1" d="M171.99,115.66c-19.21,14.53-28.4,34.74-20.53,45.14s29.82,7.06,49.03-7.46c19.21-14.53,20.53-45.14,20.53-45.14,0,0-29.82-7.06-49.03,7.46Z"/>
      <line class="cls-2" x1="186.76" y1="134.83" x2="150.02" y2="158.9"/>
    </g>
    <path class="cls-6" d="M147.13,188.94c-15.87-.51-24.21-.78-24.21-.78,0,0-13.17,9.84-23.51,17.77-5.21,4-12.8,9.88-22.01,17.28,7.74,5.2,15.48,10.4,23.23,15.6,16.49-14.57,32.98-29.15,49.47-43.72-.99-2.05-1.98-4.1-2.97-6.15Z"/>
    <path class="cls-6" d="M150.33,187.97c15.86-.56,24.2-.85,24.2-.85,0,0,13.2,9.8,23.56,17.7,5.22,3.98,12.83,9.85,22.06,17.21-7.73,5.22-15.45,10.45-23.18,15.67-16.53-14.52-33.07-29.05-49.6-43.57.98-2.05,1.97-4.11,2.95-6.16Z"/>
    <path class="cls-4" d="M102.94,187.3c-5.07-.61-10.49-1.01-16.22-1.1-1.5-.02-2.98-.02-4.43,0-.45-.65-1.18-1.47-2.27-1.78-2.58-.74-5.3,1.94-11.23,7.55-1.67,1.59-4.5,4.26-8.16,7.66,5.17,6.55,10.35,13.09,15.52,19.64,10.11-8.78,20.21-17.56,30.32-26.34-1.18-1.88-2.35-3.76-3.53-5.64Z"/>
    <path class="cls-4" d="M194.1,185.15c4.69-.19,9.72-.16,15.06.19,1.4.09,2.78.2,4.13.33.37-.56.99-1.26,1.99-1.47,2.36-.49,5.09,2.17,11.04,7.77,1.68,1.58,4.52,4.24,8.17,7.64-4.34,5.63-8.69,11.26-13.03,16.9-10.08-8.81-20.16-17.62-30.23-26.43.96-1.64,1.92-3.28,2.88-4.92Z"/>
    <path class="cls-4" d="M148.45,228.98c-.37-6.54-.14-11.78.16-15.52.23-2.79.62-6.21-.49-6.63-.77-.29-1.98.96-2.93,2.16,0,0-11.47,8.78-20.43,15.87-4.52,3.58-11.09,8.85-19.03,15.5,8.2,1.52,16.4,3.04,24.6,4.57,6.09.31,12.18.63,18.27.94-.05-5.63-.1-11.26-.15-16.88Z"/>
    <path class="cls-4" d="M147.24,230.39c.37-6.54.14-11.78-.16-15.52-.23-2.79-.62-6.21.49-6.63.77-.29,1.98.96,2.93,2.16,0,0,11.47,8.78,20.43,15.87,4.52,3.58,11.09,8.85,19.03,15.5-8.2,1.52-16.4,3.04-24.6,4.57-6.09.31-12.18.63-18.27.94.05-5.63.1-11.26.15-16.88Z"/>
    <path id="Half_Circle" data-name="Half Circle" class="cls-2" d="M234.45,186.87c0,33.91-39.04,61.39-87.19,61.39s-87.19-27.49-87.19-61.39"/>
    <line class="cls-2" x1="73.13" y1="217.57" x2="112.57" y2="186.2"/>
    <line class="cls-2" x1="99.23" y1="236.59" x2="147.13" y2="198.5"/>
    <line class="cls-2" x1="221.72" y1="213.48" x2="184.33" y2="186.2"/>
    <line class="cls-2" x1="196.6" y1="237.66" x2="148.7" y2="199.57"/>
    <path class="cls-7" d="M143.4,138.06c1.93,0,1.93-3,0-3s-1.93,3,0,3h0Z"/>
    <path class="cls-7" d="M150.67,136.24c1.93,0,1.93-3,0-3s-1.93,3,0,3h0Z"/>
    <line id="Horizontal_Line" data-name="Horizontal Line" class="cls-2" x1="30" y1="186.2" x2="260.06" y2="186.2"/>
    <g id="Left_Leaf" data-name="Left Leaf">
      <path class="cls-3" d="M121.31,120.87c19.87,13.02,30.82,31.45,24.45,41.18s-27.64,7.05-47.52-5.97c-19.87-13.02-24.45-41.18-24.45-41.18,0,0,27.64-7.05,47.52,5.97Z"/>
      <path class="cls-1" d="M123.69,122.5c19.21,14.53,28.4,34.74,20.53,45.14-7.87,10.4-29.82,7.06-49.03-7.46-19.21-14.53-20.53-45.14-20.53-45.14,0,0,29.82-7.06,49.03,7.46Z"/>
      <line class="cls-2" x1="108.92" y1="141.66" x2="145.67" y2="165.73"/>
    </g>
    <path class="cls-7" d="M142.91,139.41c1.93,0,1.93-3,0-3s-1.93,3,0,3h0Z"/>
    <path class="cls-7" d="M140.97,136.51c1.93,0,1.93-3,0-3s-1.93,3,0,3h0Z"/>
    <g id="Middle_Leaf" data-name="Middle Leaf">
      <path class="cls-3" d="M173.07,78.61c0,25.63-12.55,46.41-28.04,46.41s-28.04-20.78-28.04-46.41,28.04-46.41,28.04-46.41c0,0,28.04,20.78,28.04,46.41Z"/>
      <line class="cls-2" x1="146.82" y1="86.04" x2="147.27" y2="248.26"/>
      <path class="cls-1" d="M173.84,82.57c0,27.82-13.45,50.37-30.04,50.37-4.41,0-8.6-1.59-12.37-4.45-10.42-7.9-17.67-25.49-17.67-45.91,0-27.82,30.04-50.37,30.04-50.37,0,0,30.04,22.55,30.04,50.37Z"/>
    </g>
  </g>
</svg>